<svg width="1050" height="814" viewBox="0 0 1050 814" fill="none" xmlns="http://www.w3.org/2000/svg">
<g id="m-1" clip-path="url(#clip0)">
<g id="pata">
<g id="flowers">
<path id="Vector" d="M253.618 332.946C253.618 332.946 195.618 259.486 200.108 186.446C201.998 155.796 194.448 125.266 177.578 99.6063C169.553 87.4491 160.428 76.0546 150.318 65.5663" stroke="#535461" stroke-width="2" stroke-miterlimit="10"/>
<path id="Vector_2" d="M152.888 19.5063C156.988 29.7163 150.398 66.7563 150.398 66.7563C150.398 66.7563 120.008 44.5663 115.908 34.3663C113.938 29.4598 113.997 23.9714 116.073 19.1086C118.149 14.2458 122.072 10.4068 126.978 8.43627C131.885 6.46571 137.373 6.52497 142.236 8.60099C147.099 10.677 150.938 14.5998 152.908 19.5063H152.888Z" fill="#6C63FF"/>
<path id="Vector_3" d="M206.178 63.7863C204.068 74.5963 178.398 102.106 178.398 102.106C178.398 102.106 164.948 66.9663 167.058 56.1663C167.523 53.5643 168.501 51.0808 169.935 48.8605C171.37 46.6401 173.231 44.7272 175.411 43.2331C177.592 41.7389 180.048 40.6934 182.636 40.1575C185.224 39.6215 187.893 39.6057 190.488 40.1111C193.082 40.6164 195.55 41.6328 197.748 43.1011C199.946 44.5693 201.83 46.4601 203.29 48.6634C204.75 50.8667 205.758 53.3384 206.253 55.9347C206.749 58.531 206.724 61.1999 206.178 63.7863V63.7863Z" fill="#6C63FF"/>
<path id="Vector_4" d="M243.668 160.986C236.398 169.246 200.358 180.036 200.358 180.036C200.358 180.036 206.488 142.916 213.758 134.656C217.25 130.69 222.174 128.273 227.447 127.937C232.721 127.602 237.912 129.375 241.878 132.866C245.845 136.358 248.261 141.282 248.597 146.556C248.933 151.829 247.16 157.02 243.668 160.986Z" fill="#6C63FF"/>
<path id="Vector_5" d="M255.488 240.916C249.718 250.296 216.008 267.016 216.008 267.016C216.008 267.016 215.778 229.396 221.548 220.016C224.365 215.617 228.797 212.499 233.89 211.335C238.983 210.17 244.33 211.052 248.779 213.791C253.228 216.529 256.424 220.905 257.679 225.976C258.934 231.048 258.147 236.409 255.488 240.906V240.916Z" fill="#6C63FF"/>
<path id="Vector_6" d="M140.368 119.676C150.558 123.846 187.638 117.516 187.638 117.516C187.638 117.516 165.638 86.9763 155.478 82.7963C150.606 80.8868 145.179 80.9701 140.367 83.0282C135.556 85.0862 131.748 88.954 129.764 93.7962C127.78 98.6384 127.78 104.067 129.764 108.909C131.748 113.751 135.557 117.618 140.368 119.676Z" fill="#6C63FF"/>
<path id="Vector_7" d="M155.368 212.986C166.368 213.916 199.828 196.776 199.828 196.776C199.828 196.776 169.718 174.206 158.758 173.276C156.127 173.007 153.468 173.265 150.937 174.034C148.406 174.803 146.053 176.068 144.016 177.756C141.979 179.444 140.299 181.52 139.072 183.864C137.846 186.208 137.099 188.772 136.874 191.408C136.649 194.043 136.951 196.698 137.762 199.215C138.573 201.733 139.878 204.064 141.599 206.073C143.32 208.081 145.424 209.727 147.788 210.914C150.152 212.101 152.729 212.805 155.368 212.986V212.986Z" fill="#6C63FF"/>
<path id="Vector_8" d="M182.398 301.666C193.048 304.446 228.948 293.206 228.948 293.206C228.948 293.206 203.088 265.876 192.438 263.106C187.355 261.869 181.989 262.68 177.499 265.366C173.009 268.052 169.757 272.396 168.443 277.46C167.13 282.524 167.862 287.902 170.48 292.431C173.099 296.96 177.394 300.278 182.438 301.666H182.398Z" fill="#6C63FF"/>
<path id="Vector_9" opacity="0.25" d="M152.888 19.5063C156.988 29.7163 150.398 66.7563 150.398 66.7563C150.398 66.7563 120.008 44.5663 115.908 34.3663C113.938 29.4598 113.997 23.9714 116.073 19.1086C118.149 14.2458 122.072 10.4068 126.978 8.43627C131.885 6.46571 137.373 6.52497 142.236 8.60099C147.099 10.677 150.938 14.5998 152.908 19.5063H152.888Z" fill="black"/>
<path id="Vector_10" opacity="0.25" d="M206.178 63.7863C204.068 74.5963 178.398 102.106 178.398 102.106C178.398 102.106 164.948 66.9663 167.058 56.1663C167.523 53.5643 168.501 51.0808 169.935 48.8605C171.37 46.6401 173.231 44.7272 175.411 43.2331C177.592 41.7389 180.048 40.6934 182.636 40.1575C185.224 39.6215 187.893 39.6057 190.488 40.1111C193.082 40.6164 195.55 41.6328 197.748 43.1011C199.946 44.5693 201.83 46.4601 203.29 48.6634C204.75 50.8667 205.758 53.3384 206.253 55.9347C206.749 58.531 206.724 61.1999 206.178 63.7863V63.7863Z" fill="black"/>
<path id="Vector_11" opacity="0.25" d="M243.668 160.986C236.398 169.246 200.358 180.036 200.358 180.036C200.358 180.036 206.488 142.916 213.758 134.656C217.25 130.69 222.174 128.273 227.447 127.937C232.721 127.602 237.912 129.375 241.878 132.866C245.845 136.358 248.261 141.282 248.597 146.556C248.933 151.829 247.16 157.02 243.668 160.986Z" fill="black"/>
<path id="Vector_12" opacity="0.25" d="M255.488 240.916C249.718 250.296 216.008 267.016 216.008 267.016C216.008 267.016 215.778 229.396 221.548 220.016C224.365 215.617 228.797 212.499 233.89 211.335C238.983 210.17 244.33 211.052 248.779 213.791C253.228 216.529 256.424 220.905 257.679 225.976C258.934 231.048 258.147 236.409 255.488 240.906V240.916Z" fill="black"/>
<path id="Vector_13" opacity="0.25" d="M140.368 119.676C150.558 123.846 187.638 117.516 187.638 117.516C187.638 117.516 165.638 86.9763 155.478 82.7963C150.606 80.8868 145.179 80.9701 140.367 83.0282C135.556 85.0862 131.748 88.954 129.764 93.7962C127.78 98.6384 127.78 104.067 129.764 108.909C131.748 113.751 135.557 117.618 140.368 119.676Z" fill="black"/>
<path id="Vector_14" opacity="0.25" d="M155.368 212.986C166.368 213.916 199.828 196.776 199.828 196.776C199.828 196.776 169.718 174.206 158.758 173.276C156.127 173.007 153.468 173.265 150.937 174.034C148.406 174.803 146.053 176.068 144.016 177.756C141.979 179.444 140.299 181.52 139.072 183.864C137.846 186.208 137.099 188.772 136.874 191.408C136.649 194.043 136.951 196.698 137.762 199.215C138.573 201.733 139.878 204.064 141.599 206.073C143.32 208.081 145.424 209.727 147.788 210.914C150.152 212.101 152.729 212.805 155.368 212.986V212.986Z" fill="black"/>
<path id="Vector_15" opacity="0.25" d="M182.398 301.666C193.048 304.446 228.948 293.206 228.948 293.206C228.948 293.206 203.088 265.876 192.438 263.106C187.355 261.869 181.989 262.68 177.499 265.366C173.009 268.052 169.757 272.396 168.443 277.46C167.13 282.524 167.862 287.902 170.48 292.431C173.099 296.96 177.394 300.278 182.438 301.666H182.398Z" fill="black"/>
<path id="Vector_16" d="M253.118 329.886C253.118 329.886 170.318 286.236 144.838 217.636C134.138 188.846 114.838 163.996 89.0482 147.376C76.7811 139.507 63.8166 132.782 50.3182 127.286" stroke="#535461" stroke-width="2" stroke-miterlimit="10"/>
<path id="Vector_17" d="M34.0182 84.1463C41.8982 91.8263 50.8882 128.356 50.8882 128.356C50.8882 128.356 14.1182 120.356 6.22821 112.716C4.31113 110.901 2.77372 108.724 1.70526 106.31C0.636812 103.896 0.0586106 101.293 0.0042293 98.6539C-0.050152 96.0145 0.420374 93.3907 1.38848 90.9347C2.35659 88.4786 3.803 86.2394 5.64369 84.3471C7.48439 82.4547 9.68271 80.9469 12.111 79.9112C14.5393 78.8755 17.1491 78.3325 19.789 78.3139C22.4288 78.2952 25.0461 78.8011 27.4888 79.8024C29.9315 80.8036 32.1509 82.2802 34.0182 84.1463V84.1463Z" fill="#6C63FF"/>
<path id="Vector_18" d="M100.678 103.046C103.128 113.776 90.8082 149.326 90.8082 149.326C90.8082 149.326 64.2782 122.646 61.8082 111.916C61.2258 109.365 61.1515 106.725 61.5896 104.145C62.0278 101.565 62.9697 99.0973 64.3616 96.8817C65.7536 94.6661 67.5683 92.7464 69.7022 91.2321C71.836 89.7178 74.2473 88.6387 76.7982 88.0563C79.3491 87.4738 81.9898 87.3996 84.5694 87.8377C87.1491 88.2758 89.6171 89.2177 91.8327 90.6097C94.0483 92.0016 95.9681 93.8164 97.4824 95.9502C98.9966 98.0841 100.076 100.495 100.658 103.046H100.678Z" fill="#6C63FF"/>
<path id="Vector_19" d="M174.318 176.706C171.018 187.206 142.438 211.706 142.438 211.706C142.438 211.706 132.998 175.286 136.298 164.786C138.022 159.92 141.566 155.911 146.186 153.606C150.805 151.301 156.139 150.878 161.064 152.427C165.989 153.975 170.121 157.375 172.589 161.909C175.058 166.444 175.671 171.759 174.298 176.736L174.318 176.706Z" fill="#6C63FF"/>
<path id="Vector_20" d="M217.538 244.996C216.058 255.906 192.028 284.846 192.028 284.846C192.028 284.846 176.568 250.546 178.028 239.646C178.738 234.408 181.499 229.667 185.704 226.464C189.91 223.262 195.215 221.862 200.453 222.571C205.691 223.281 210.433 226.042 213.635 230.247C216.837 234.453 218.238 239.758 217.528 244.996H217.538Z" fill="#6C63FF"/>
<path id="Vector_21" d="M63.1682 180.796C74.1682 180.486 105.508 159.666 105.508 159.666C105.508 159.666 73.0382 140.666 62.0382 140.966C56.7564 141.116 51.7505 143.358 48.1217 147.199C44.4928 151.04 42.5384 156.165 42.6882 161.446C42.838 166.728 45.0799 171.734 48.9207 175.363C52.7614 178.992 57.8864 180.946 63.1682 180.796V180.796Z" fill="#6C63FF"/>
<path id="Vector_22" d="M114.688 260.026C125.088 256.436 148.758 227.186 148.758 227.186C148.758 227.186 112.098 218.756 101.688 222.346C96.7156 224.089 92.6355 227.73 90.34 232.472C88.0446 237.215 87.7207 242.674 89.4392 247.655C91.1576 252.636 94.7786 256.734 99.5102 259.052C104.242 261.37 109.699 261.721 114.688 260.026Z" fill="#6C63FF"/>
<path id="Vector_23" d="M175.318 330.156C186.178 328.376 214.458 303.546 214.458 303.546C214.458 303.546 179.738 289.046 168.878 290.826C163.738 291.762 159.17 294.678 156.159 298.948C153.148 303.217 151.934 308.499 152.778 313.655C153.622 318.811 156.457 323.429 160.673 326.516C164.889 329.602 170.148 330.909 175.318 330.156V330.156Z" fill="#6C63FF"/>
</g>
</g>
<g id="flor">
<path id="Vector_24" d="M525 818C814.949 818 1050 785.317 1050 745C1050 704.683 814.949 672 525 672C235.051 672 0 704.683 0 745C0 785.317 235.051 818 525 818Z" fill="url(#paint0_linear)"/>
</g>
<g id="music-total">
<path id="Vector_25" d="M759.2 16.13H230.8C219.865 16.13 211 24.9948 211 35.93V680.33C211 691.265 219.865 700.13 230.8 700.13H759.2C770.135 700.13 779 691.265 779 680.33V35.93C779 24.9948 770.135 16.13 759.2 16.13Z" fill="#464353"/>
<path id="Vector_26" d="M495 687.13C506.046 687.13 515 678.176 515 667.13C515 656.084 506.046 647.13 495 647.13C483.954 647.13 475 656.084 475 667.13C475 678.176 483.954 687.13 495 687.13Z" fill="white"/>
<path id="Vector_27" d="M495 65.63C500.247 65.63 504.5 61.3767 504.5 56.13C504.5 50.8833 500.247 46.63 495 46.63C489.753 46.63 485.5 50.8833 485.5 56.13C485.5 61.3767 489.753 65.63 495 65.63Z" fill="white"/>
<path id="Vector_28" d="M495 47.12C496.78 47.12 498.52 47.6478 500 48.6368C501.48 49.6257 502.634 51.0313 503.315 52.6758C503.996 54.3204 504.174 56.13 503.827 57.8758C503.48 59.6216 502.623 61.2253 501.364 62.484C500.105 63.7426 498.502 64.5998 496.756 64.9471C495.01 65.2943 493.2 65.1161 491.556 64.4349C489.911 63.7537 488.506 62.6002 487.517 61.1201C486.528 59.6401 486 57.9 486 56.12C486 53.733 486.948 51.4439 488.636 49.756C490.324 48.0682 492.613 47.12 495 47.12V47.12ZM495 46.12C493.022 46.12 491.089 46.7065 489.444 47.8053C487.8 48.9041 486.518 50.4659 485.761 52.2932C485.004 54.1204 484.806 56.1311 485.192 58.0709C485.578 60.0107 486.53 61.7925 487.929 63.1911C489.327 64.5896 491.109 65.542 493.049 65.9278C494.989 66.3137 497 66.1157 498.827 65.3588C500.654 64.6019 502.216 63.3202 503.315 61.6757C504.414 60.0312 505 58.0978 505 56.12C505 53.4678 503.946 50.9243 502.071 49.0489C500.196 47.1736 497.652 46.12 495 46.12V46.12Z" fill="white"/>
<path id="Vector_29" d="M406.74 476.01C406.542 476.009 406.351 475.938 406.2 475.81L397.06 467.39V476H395V457.95H397.06V466.56L406.22 458.08C406.366 457.959 406.551 457.895 406.74 457.9C406.854 457.897 406.968 457.918 407.074 457.96C407.18 458.002 407.276 458.065 407.358 458.145C407.439 458.226 407.503 458.321 407.546 458.427C407.59 458.533 407.611 458.646 407.61 458.76V475.1C407.617 475.218 407.599 475.336 407.559 475.447C407.518 475.558 407.455 475.659 407.373 475.744C407.291 475.83 407.193 475.897 407.084 475.943C406.975 475.989 406.858 476.012 406.74 476.01V476.01Z" fill="white"/>
<path id="Vector_30" d="M406.74 458.44C406.788 458.437 406.837 458.445 406.882 458.461C406.928 458.478 406.969 458.505 407.004 458.539C407.039 458.572 407.066 458.613 407.085 458.658C407.103 458.703 407.111 458.751 407.11 458.8V475.14C407.111 475.189 407.103 475.238 407.085 475.283C407.067 475.329 407.039 475.37 407.005 475.405C406.97 475.439 406.929 475.467 406.883 475.485C406.838 475.503 406.789 475.511 406.74 475.51C406.663 475.506 406.59 475.478 406.53 475.43L398.23 467.8L397.36 467L398.24 466.19L406.53 458.51C406.591 458.465 406.664 458.44 406.74 458.44V458.44ZM396.56 458.44V475.56H395.49V458.44H396.56ZM406.74 457.44C406.426 457.438 406.121 457.548 405.88 457.75L397.56 465.46V457.95C397.56 457.815 397.506 457.685 397.411 457.589C397.315 457.494 397.185 457.44 397.05 457.44H395C394.865 457.44 394.735 457.494 394.639 457.589C394.544 457.685 394.49 457.815 394.49 457.95V476C394.49 476.135 394.544 476.265 394.639 476.361C394.735 476.456 394.865 476.51 395 476.51H397.05C397.185 476.51 397.315 476.456 397.411 476.361C397.506 476.265 397.56 476.135 397.56 476V468.56L405.88 476.22C406.12 476.425 406.424 476.539 406.74 476.54C406.92 476.541 407.099 476.507 407.266 476.438C407.433 476.37 407.584 476.269 407.712 476.142C407.839 476.014 407.94 475.863 408.008 475.696C408.077 475.529 408.111 475.35 408.11 475.17V458.8C408.111 458.62 408.077 458.442 408.008 458.276C407.94 458.109 407.839 457.958 407.711 457.832C407.584 457.705 407.432 457.605 407.265 457.538C407.098 457.471 406.92 457.437 406.74 457.44V457.44Z" fill="white"/>
<path id="Vector_31" d="M583.26 476.01C583.037 476.008 582.823 475.922 582.66 475.77C582.573 475.69 582.503 475.593 582.457 475.484C582.41 475.376 582.388 475.258 582.39 475.14V458.8C582.39 458.686 582.413 458.574 582.456 458.469C582.5 458.364 582.564 458.268 582.645 458.188C582.726 458.108 582.822 458.045 582.928 458.003C583.033 457.96 583.146 457.939 583.26 457.94C583.462 457.936 583.658 458.007 583.81 458.14L593 466.56V457.96H595V476.02H593V467.35L583.84 475.83C583.677 475.962 583.469 476.026 583.26 476.01V476.01Z" fill="white"/>
<path id="Vector_32" d="M583.26 458.44C583.336 458.437 583.411 458.462 583.47 458.51L591.77 466.14L592.64 466.95L591.77 467.75L583.47 475.43C583.412 475.481 583.337 475.51 583.26 475.51C583.162 475.51 583.068 475.471 582.998 475.402C582.929 475.332 582.89 475.238 582.89 475.14V458.8C582.89 458.752 582.9 458.704 582.918 458.66C582.937 458.616 582.964 458.575 582.999 458.542C583.033 458.508 583.074 458.482 583.119 458.464C583.164 458.447 583.212 458.439 583.26 458.44ZM594.52 458.44V475.56H593.45V458.44H594.52ZM583.26 457.44C583.081 457.439 582.903 457.473 582.736 457.541C582.57 457.608 582.419 457.708 582.292 457.835C582.164 457.961 582.063 458.112 581.994 458.277C581.925 458.443 581.89 458.621 581.89 458.8V475.14C581.889 475.32 581.923 475.499 581.992 475.666C582.06 475.833 582.161 475.984 582.288 476.112C582.416 476.239 582.567 476.34 582.734 476.408C582.901 476.477 583.08 476.511 583.26 476.51C583.579 476.51 583.887 476.397 584.13 476.19L592.45 468.49V476C592.45 476.135 592.504 476.265 592.599 476.361C592.695 476.456 592.825 476.51 592.96 476.51H594.96C595.028 476.511 595.095 476.499 595.158 476.474C595.221 476.449 595.279 476.412 595.327 476.364C595.375 476.317 595.414 476.26 595.44 476.198C595.466 476.135 595.48 476.068 595.48 476V457.95C595.48 457.882 595.466 457.815 595.44 457.753C595.414 457.69 595.375 457.633 595.327 457.586C595.279 457.538 595.221 457.501 595.158 457.476C595.095 457.451 595.028 457.439 594.96 457.44H592.96C592.825 457.44 592.695 457.494 592.599 457.589C592.504 457.685 592.45 457.815 592.45 457.95V465.41L584.13 457.75C583.886 457.546 583.578 457.436 583.26 457.44V457.44Z" fill="white"/>
<path id="Vector_33" d="M498.4 476.31C497.992 476.31 497.6 476.148 497.311 475.859C497.022 475.57 496.86 475.178 496.86 474.77V459.84C496.86 459.432 497.022 459.04 497.311 458.751C497.6 458.462 497.992 458.3 498.4 458.3H502.47C502.878 458.3 503.27 458.462 503.559 458.751C503.848 459.04 504.01 459.432 504.01 459.84V474.77C504.01 475.178 503.848 475.57 503.559 475.859C503.27 476.148 502.878 476.31 502.47 476.31H498.4ZM487.54 476.31C487.132 476.31 486.74 476.148 486.451 475.859C486.162 475.57 486 475.178 486 474.77V459.84C486 459.432 486.162 459.04 486.451 458.751C486.74 458.462 487.132 458.3 487.54 458.3H491.61C492.018 458.3 492.41 458.462 492.699 458.751C492.988 459.04 493.15 459.432 493.15 459.84V474.77C493.15 475.178 492.988 475.57 492.699 475.859C492.41 476.148 492.018 476.31 491.61 476.31H487.54Z" fill="white"/>
<path id="Vector_34" d="M502.47 458.8C502.735 458.8 502.99 458.905 503.177 459.093C503.365 459.28 503.47 459.535 503.47 459.8V474.73C503.47 474.995 503.365 475.25 503.177 475.437C502.99 475.625 502.735 475.73 502.47 475.73H498.4C498.135 475.73 497.88 475.625 497.693 475.437C497.505 475.25 497.4 474.995 497.4 474.73V459.84C497.4 459.575 497.505 459.32 497.693 459.133C497.88 458.945 498.135 458.84 498.4 458.84H502.47V458.8ZM491.61 458.84C491.875 458.84 492.13 458.945 492.317 459.133C492.505 459.32 492.61 459.575 492.61 459.84V474.77C492.61 475.035 492.505 475.29 492.317 475.477C492.13 475.665 491.875 475.77 491.61 475.77H487.54C487.275 475.77 487.02 475.665 486.833 475.477C486.645 475.29 486.54 475.035 486.54 474.77V459.84C486.54 459.575 486.645 459.32 486.833 459.133C487.02 458.945 487.275 458.84 487.54 458.84H491.61ZM502.47 457.84H498.4C497.87 457.84 497.361 458.051 496.986 458.426C496.611 458.801 496.4 459.31 496.4 459.84V474.77C496.4 475.3 496.611 475.809 496.986 476.184C497.361 476.559 497.87 476.77 498.4 476.77H502.47C503 476.77 503.509 476.559 503.884 476.184C504.259 475.809 504.47 475.3 504.47 474.77V459.84C504.47 459.31 504.259 458.801 503.884 458.426C503.509 458.051 503 457.84 502.47 457.84ZM491.61 457.84H487.54C487.01 457.84 486.501 458.051 486.126 458.426C485.751 458.801 485.54 459.31 485.54 459.84V474.77C485.54 475.3 485.751 475.809 486.126 476.184C486.501 476.559 487.01 476.77 487.54 476.77H491.61C492.14 476.77 492.649 476.559 493.024 476.184C493.399 475.809 493.61 475.3 493.61 474.77V459.84C493.61 459.31 493.399 458.801 493.024 458.426C492.649 458.051 492.14 457.84 491.61 457.84Z" fill="white"/>
<path id="Vector_35" opacity="0.5" d="M615 433.62H375V436.29H615V433.62Z" fill="#6C63FF"/>
<path id="Vector_36" d="M449.11 440.78C447.954 440.782 446.824 440.441 445.862 439.8C444.9 439.159 444.15 438.247 443.706 437.18C443.263 436.112 443.147 434.937 443.372 433.803C443.597 432.669 444.153 431.628 444.97 430.811C445.788 429.993 446.829 429.437 447.963 429.212C449.097 428.987 450.272 429.103 451.339 429.546C452.407 429.99 453.319 430.74 453.96 431.702C454.601 432.664 454.942 433.794 454.94 434.95C454.937 436.495 454.322 437.977 453.229 439.07C452.137 440.162 450.655 440.777 449.11 440.78V440.78Z" fill="white"/>
<path id="Vector_37" d="M449.11 429.61C450.167 429.608 451.2 429.92 452.079 430.505C452.959 431.091 453.645 431.924 454.051 432.9C454.456 433.875 454.563 434.949 454.359 435.986C454.154 437.022 453.646 437.975 452.899 438.722C452.153 439.47 451.202 439.98 450.165 440.187C449.129 440.394 448.055 440.288 447.079 439.884C446.102 439.481 445.268 438.796 444.681 437.918C444.093 437.039 443.78 436.007 443.78 434.95C443.78 433.535 444.341 432.179 445.341 431.178C446.34 430.176 447.695 429.613 449.11 429.61V429.61ZM449.11 428.61C447.856 428.608 446.629 428.978 445.585 429.674C444.541 430.369 443.727 431.359 443.245 432.517C442.764 433.675 442.637 434.95 442.881 436.181C443.124 437.411 443.727 438.542 444.613 439.43C445.5 440.317 446.629 440.922 447.859 441.167C449.09 441.413 450.365 441.288 451.524 440.808C452.683 440.329 453.674 439.516 454.371 438.473C455.068 437.431 455.44 436.204 455.44 434.95C455.441 434.118 455.279 433.294 454.961 432.525C454.644 431.755 454.177 431.056 453.59 430.468C453.002 429.879 452.303 429.412 451.535 429.093C450.766 428.774 449.942 428.61 449.11 428.61V428.61Z" fill="white"/>
<path id="Vector_38" d="M448.61 434.12H375.5V435.79H448.61V434.12Z" fill="white"/>
<path id="Vector_39" d="M448.11 434.61V435.28H376V434.61H448.11ZM449.11 433.61H375V436.28H449.11V433.61Z" fill="white"/>
<path id="Vector_40" d="M864.78 588.36C827.15 588.36 796.65 630.95 796.65 683.5C796.65 736.05 827.15 778.64 864.78 778.64C902.41 778.64 932.9 736.04 932.9 683.5C932.9 630.96 902.4 588.36 864.78 588.36ZM868.3 765.56C835.22 765.56 808.4 728.26 808.4 682.26C808.4 636.26 835.22 598.97 868.3 598.97C901.38 598.97 928.21 636.26 928.21 682.26C928.21 728.26 901.39 765.56 868.3 765.56Z" fill="#35323E"/>
<path id="Vector_41" d="M873 475.56L868.3 555.44H776C767.991 555.363 760.244 558.293 754.29 563.65C748.944 568.531 745.622 575.239 744.98 582.45V702.29H756.72L756.64 694.07H873V682.32H756.51L755.51 586.2C755.493 584.99 755.617 583.781 755.88 582.6C756.61 579.43 758.63 573.66 764.06 570.42C766.447 569.064 769.155 568.373 771.9 568.42H876.52L882.4 485.02H917.63V475.56H873Z" fill="#464353"/>
<path id="Vector_42" opacity="0.1" d="M873 475.56L868.3 555.44H776C767.991 555.363 760.244 558.293 754.29 563.65C748.944 568.531 745.622 575.239 744.98 582.45V702.29H756.72L756.64 694.07H873V682.32H756.51L755.51 586.2C755.493 584.99 755.617 583.781 755.88 582.6C756.61 579.43 758.63 573.66 764.06 570.42C766.447 569.064 769.155 568.373 771.9 568.42H876.52L882.4 485.02H917.63V475.56H873Z" fill="black"/>
<path id="Vector_43" d="M875.94 518.47L964.62 515.53L959.92 638.87L747.32 641.22L752.6 591.3L868.3 610.68L875.94 518.47Z" fill="#35323E"/>
<path id="Vector_44" d="M956.4 682.33H838.94V694.08H956.4V682.33Z" fill="#464353"/>
<path id="Vector_45" d="M876.52 673.42V638.86H867.13V673.42C863.65 676.02 861.25 681.42 861.25 687.61C861.25 696.37 865.99 703.47 871.83 703.47C877.67 703.47 882.4 696.37 882.4 687.61C882.4 681.39 880 676.02 876.52 673.42Z" fill="#464353"/>
<path id="Vector_46" d="M830.37 702.81C832.315 701.006 834.843 699.961 837.493 699.866C840.144 699.771 842.741 700.631 844.81 702.29C844.81 702.29 858.9 711.69 845.98 751.63C845.98 751.63 836.59 757.5 841.29 738.7C845.99 719.9 843.63 708.16 838.94 708.16C834.25 708.16 828.37 721.09 828.37 721.09L820.14 717.56C820.14 717.56 823.85 708.91 830.37 702.81Z" fill="#464353"/>
<path id="Vector_47" d="M742.28 702.81C744.218 700.997 746.746 699.946 749.398 699.851C752.05 699.755 754.647 700.622 756.71 702.29V702.29C756.71 702.29 770.81 711.69 757.89 751.63C757.89 751.63 748.49 757.5 753.19 738.7C757.89 719.9 755.54 708.16 750.84 708.16C746.14 708.16 740.27 721.09 740.27 721.09L732.05 717.56C732.05 717.56 735.76 708.91 742.28 702.81Z" fill="#464353"/>
<path id="Vector_48" d="M743.21 783.35C757.807 783.35 769.64 767.573 769.64 748.11C769.64 728.647 757.807 712.87 743.21 712.87C728.613 712.87 716.78 728.647 716.78 748.11C716.78 767.573 728.613 783.35 743.21 783.35Z" fill="#35323E"/>
<path id="Vector_49" d="M831.3 783.35C845.897 783.35 857.73 767.573 857.73 748.11C857.73 728.647 845.897 712.87 831.3 712.87C816.703 712.87 804.87 728.647 804.87 748.11C804.87 767.573 816.703 783.35 831.3 783.35Z" fill="#35323E"/>
<path id="Vector_50" d="M673.88 755.56C682.45 761.3 695.45 758.56 695.45 758.56C695.45 758.56 715.09 749.26 720.9 749.26C726.71 749.26 740.81 743.56 740.81 743.56L740.33 739.69L738.89 728.02C747.83 735.02 757.77 732.58 762.66 732.02C767.92 731.48 795.98 714.79 798.66 713.7C799.676 713.086 800.524 712.231 801.13 711.21C802.943 708.455 804.538 705.563 805.9 702.56V702.56C807.66 701.01 808.9 699.77 808.9 699.5C808.9 699.23 809.6 697.2 810.62 694.91C814.62 694.22 818.04 692.73 819.14 691.84C819.572 691.487 819.964 691.088 820.31 690.65C821.381 689.272 821.943 687.565 821.9 685.82C821.9 685.82 849.28 658.2 845.69 646.71C842.1 635.22 854.54 634.94 854.54 634.94C854.54 634.94 873.62 626.74 876.28 621.81C877.92 618.81 892.23 612.14 903 607.46L904.33 606.89C908.51 616.06 929.74 609.01 933.92 605.13C938.35 601.02 951.34 599.13 951.34 599.13C951.34 599.13 951.9 545.51 956.05 538.68C958.05 535.43 958.49 524.85 958.44 514.62V513.56C964.25 512.43 978.07 509.8 984.44 509.16C988.51 508.76 992.74 506.22 996 503.76L996.38 504.24C997.501 504.699 998.711 504.897 999.92 504.82C1000.99 504.934 1002.07 504.732 1003.02 504.24C1005.51 502.87 1014.63 500.14 1017.95 498.77C1021.27 497.4 1017.4 487.55 1014.95 485.64C1012.5 483.73 1010.8 481.26 1012.18 480.17C1013.56 479.08 1008.87 476.34 1006.1 475.79C1003.33 475.24 995.04 471.41 995.04 471.41C995.04 471.41 992.04 465.12 987.04 465.12C982.04 465.12 975.42 460.2 975.42 460.2C975.14 458.01 969.89 457.74 969.89 457.74C969.89 457.74 949.97 442.42 946.65 444.33C943.33 446.24 934.21 441.33 934.21 441.33C934.21 441.33 923.01 442.59 920.38 440.53C920.363 439.857 920.128 439.208 919.71 438.68C919.12 436.83 916.22 434.29 913.42 432.17C913.634 430.864 913.741 429.543 913.74 428.22C913.74 427.65 913.74 427.07 913.68 426.51V426.23L914.07 422.38C914.11 421.108 914.453 419.863 915.07 418.75C915.54 418.03 916.22 417.46 916.74 416.75C916.866 416.585 916.98 416.411 917.08 416.23C917.112 416.187 917.139 416.14 917.16 416.09C917.238 415.957 917.308 415.821 917.37 415.68L917.43 415.54C917.589 415.163 917.71 414.771 917.79 414.37C917.79 414.37 917.79 414.31 917.79 414.28C917.79 414.25 917.85 413.91 917.87 413.73C917.875 413.704 917.875 413.676 917.87 413.65C917.983 412.061 917.772 410.465 917.25 408.96C916.42 406.37 915.12 403.87 914.98 401.18C915.048 399.845 915.001 398.507 914.84 397.18C914.18 394.18 911.1 392.28 908.14 391.04C904.05 389.33 901.99 387.46 898.71 384.91C895.91 382.75 891.31 383.83 887.79 384.06C879.79 384.57 871.85 386.99 864.3 389.49C861.36 390.49 858.38 391.56 856.09 393.56C854.554 394.87 853.499 396.654 853.09 398.63C853.01 399.085 852.98 399.548 853 400.01C852.995 400.05 852.995 400.09 853 400.13C853.01 400.308 853.03 400.485 853.06 400.66C853.055 400.717 853.055 400.773 853.06 400.83C853.099 401.043 853.153 401.254 853.22 401.46V401.46C853.54 402.46 854.13 403.39 854.47 404.39C854.547 404.609 854.611 404.833 854.66 405.06V405.14C854.66 405.36 854.74 405.58 854.77 405.8C855.07 408.29 854.16 410.89 853.77 413.42C853.71 413.78 853.67 414.15 853.64 414.52C853.524 415.988 853.656 417.465 854.03 418.89V418.89C854.03 419.07 854.13 419.24 854.19 419.41C854.209 419.488 854.232 419.565 854.26 419.64C854.26 419.78 854.37 419.93 854.43 420.07C854.49 420.21 854.5 420.26 854.55 420.35C854.6 420.44 854.66 420.61 854.72 420.73L854.88 421.04L855.08 421.38C855.14 421.49 855.21 421.59 855.28 421.7C855.35 421.81 855.41 421.9 855.48 422C855.55 422.1 855.64 422.21 855.73 422.31L855.95 422.58L856.24 422.88C856.312 422.962 856.388 423.038 856.47 423.11C856.58 423.22 856.7 423.31 856.81 423.41L857.05 423.6C857.188 423.705 857.331 423.801 857.48 423.89L857.68 424.03C857.91 424.16 858.14 424.28 858.38 424.39C859.97 425.12 861.97 425.39 862.93 426.77C863.152 427.102 863.311 427.471 863.4 427.86C863.4 427.95 863.4 428.05 863.4 428.14V428.38C863.406 429.182 863.453 429.983 863.54 430.78C863.533 431.214 863.556 431.649 863.61 432.08C863.66 432.403 863.751 432.719 863.88 433.02C864.998 438.532 867.957 443.501 872.27 447.11C872.35 447.53 872.44 448.02 872.55 448.58C870.131 450.411 867.429 451.834 864.55 452.79C857.91 454.74 848.5 463.7 848.5 463.7C848.5 463.7 843.83 497.35 842.71 501.45C841.59 505.55 840.71 521.45 840.71 521.45C840.71 521.45 839.6 528.02 837.94 531.3C836.77 533.62 836.94 543.55 840.26 549.59C839.74 550.779 839.067 551.894 838.26 552.91C831.62 560.57 811.71 560.3 805.07 560.3C798.95 560.3 797.07 564 796.81 564.59C784.66 568.04 745.29 579.27 740.62 581.32C735.09 583.73 732.05 607.62 732.05 607.62C732.05 607.62 720.43 647.28 720.99 652.5C721.55 657.72 717 672.17 717 672.17C717 672.17 717 688.53 715.12 689.64C713.18 690.46 713.46 698.4 713.46 698.4C713.46 698.4 714.88 698.81 717.1 699.4C716.51 703.4 714.34 709.02 712.62 713C711.76 711.91 710.92 711.45 710.42 712.73C709.03 716.21 688.29 740.83 683.03 740.83C680.53 740.83 676.39 742.88 673.67 745.65C670.66 748.69 669.39 752.56 673.88 755.56ZM769 613.08C792.51 615.27 817.68 611.41 817.68 611.41C817.68 611.41 815.75 618.28 814.09 621.01C812.43 623.74 807.72 639.34 807.72 642.62C807.72 645.9 800.26 674.08 798.04 675.45C796.949 676.38 796.121 677.58 795.64 678.93C795.058 680.289 794.566 681.686 794.17 683.11C794.17 683.82 794.27 684.5 794.36 685.11C792.71 686.63 790.96 688.22 789.36 689.62C789.36 689.62 779.47 695.13 776.15 698.13C772.83 701.13 757.35 704.83 757.35 704.83C753.54 706.498 749.842 708.412 746.28 710.56C741.48 713.45 736.67 717.13 735.42 720.76C735.96 714.65 736.85 707.28 737.42 702.6H738.3C746.05 702.12 744.89 694.72 744.49 692.89C744.43 692.63 744.39 692.48 744.39 692.48C749.92 686.48 762.39 641.6 760.7 636.68C759.01 631.76 762.09 627.38 762.7 627.38C763.31 627.38 764.25 621.9 762.87 618.9C761.49 615.9 769 613.08 769 613.08ZM959.12 492.4L957.66 492.76C957.66 492.56 957.66 492.45 957.66 492.45C957.66 492.45 958.21 492.45 959.14 492.4H959.12ZM878.76 451.13C878.53 451.4 878.31 451.67 878.07 451.92L877.79 452.22C877.79 451.7 877.79 451.22 877.79 450.7L878.76 451.13ZM851.05 504.2L851.15 505.74C851.15 505.74 851 506.67 850.72 508.28L851.05 504.2ZM978.16 488.91L973.33 489.74C974.02 489.48 974.69 489.2 975.33 488.89C975.816 488.666 976.337 488.524 976.87 488.47C977.482 488.537 978.085 488.668 978.67 488.86C978.506 488.863 978.342 488.88 978.18 488.91H978.16Z" fill="url(#paint1_linear)"/>
<path id="Vector_51" d="M815 686.41C815 686.41 809.44 697.91 809.71 698.72C809.98 699.53 797.77 709.31 797.77 709.31L784.47 699.81L785.82 693.29C785.82 693.29 800.76 679.84 801.82 678.29C802.88 676.74 815 686.41 815 686.41Z" fill="#EFB7B9"/>
<path id="Vector_52" d="M739.08 725.33C748.31 734.33 759.17 731.57 764.33 731.03C769.49 730.49 797.04 713.92 799.68 712.84C800.679 712.23 801.511 711.381 802.1 710.37V710.37C803.87 707.623 805.428 704.744 806.76 701.76C806.58 701.76 797.55 704.38 795.27 701.76C795.27 701.76 791.47 697.1 790.65 697.1C789.83 697.1 790.59 688.93 790.59 688.93C790.59 688.93 780.88 694.39 777.59 697.37C774.3 700.35 759.13 704.02 759.13 704.02C755.369 705.656 751.721 707.54 748.21 709.66C741.05 714.04 733.83 720.23 739.08 725.33Z" fill="#67647E"/>
<path id="Vector_53" opacity="0.1" d="M739.08 725.33C748.31 734.33 759.17 731.57 764.33 731.03C769.49 730.49 797.04 713.92 799.68 712.84C800.679 712.23 801.511 711.381 802.1 710.37C798.89 708.46 777.9 721.8 772.03 724.24C766.16 726.68 751.3 725.33 742.88 721.8C738.68 720.04 742.94 714.62 748.25 709.65C741.05 714.04 733.83 720.23 739.08 725.33Z" fill="black"/>
<path id="Vector_54" d="M740.17 697.09C740.17 697.09 736.3 726.14 737.28 729.94C738.26 733.74 713.02 716.94 713.02 716.94C713.02 716.94 721.86 698.74 719.26 694.56C716.66 690.38 740.17 697.09 740.17 697.09Z" fill="#EFB7B9"/>
<path id="Vector_55" d="M716 697.64C716 697.64 731.74 702.25 740.43 701.71C748.04 701.23 746.9 693.89 746.5 692.07C746.44 691.81 746.4 691.66 746.4 691.66C751.83 685.66 764.05 641.17 762.4 636.28C760.75 631.39 763.76 627.05 764.4 627.05C765.04 627.05 765.93 621.62 764.57 618.64C763.21 615.66 770.57 612.94 770.57 612.94C793.65 615.11 818.35 611.28 818.35 611.28C818.35 611.28 816.45 618.09 814.82 620.81C813.19 623.53 808.58 639 808.58 642.26C808.58 645.52 801.25 673.47 799.08 674.83C798.002 675.757 797.185 676.95 796.71 678.29C796.141 679.636 795.663 681.019 795.28 682.43C796.09 700.62 816.72 693.56 819.71 691.12C820.133 690.767 820.518 690.372 820.86 689.94C821.914 688.569 822.464 686.878 822.42 685.15C822.42 685.15 849.3 657.73 845.77 646.33C842.24 634.93 854.46 634.65 854.46 634.65C854.46 634.65 873.19 626.51 875.79 621.65C877.4 618.65 891.45 612.05 902.02 607.41C908.65 604.51 913.91 602.41 913.91 602.41L909.5 586.56L906 574.12L899.46 571.66L878.58 563.8L841.08 558.64L837.64 559.09L801.21 563.8C801.21 563.8 748 579 742.57 581.4C737.14 583.8 734.2 607.56 734.2 607.56C734.2 607.56 722.79 646.92 723.34 652.1C723.89 657.28 719.54 671.62 719.54 671.62C719.54 671.62 719.54 687.86 717.69 688.97H717.64C715.74 689.76 716 697.64 716 697.64Z" fill="#575988"/>
<path id="Vector_56" opacity="0.1" d="M770.57 612.94C793.65 615.11 818.35 611.28 818.35 611.28C819.98 606.15 842.8 592.03 842.8 592.03C824.08 587.42 770.57 612.94 770.57 612.94Z" fill="black"/>
<path id="Vector_57" d="M795.28 682.43C796.09 700.62 816.72 693.56 819.71 691.12C820.133 690.767 820.518 690.372 820.86 689.94C813.65 692.59 800.86 694.64 796.71 678.29C796.141 679.636 795.663 681.019 795.28 682.43V682.43Z" fill="#444053"/>
<path id="Vector_58" d="M716 697.64C716 697.64 731.74 702.25 740.43 701.71C748.04 701.23 746.9 693.89 746.5 692.07C738.5 691.82 724.8 691.07 717.68 688.92H717.63C715.74 689.76 716 697.64 716 697.64Z" fill="#444053"/>
<path id="Vector_59" opacity="0.1" d="M795.28 682.43C796.09 700.62 816.72 693.56 819.71 691.12C820.133 690.767 820.518 690.372 820.86 689.94C813.65 692.59 800.86 694.64 796.71 678.29C796.141 679.636 795.663 681.019 795.28 682.43V682.43Z" fill="black"/>
<path id="Vector_60" opacity="0.1" d="M716 697.64C716 697.64 731.74 702.25 740.43 701.71C748.04 701.23 746.9 693.89 746.5 692.07C738.5 691.82 724.8 691.07 717.68 688.92H717.63C715.74 689.76 716 697.64 716 697.64Z" fill="black"/>
<path id="Vector_61" d="M677.19 754.37C685.6 760.07 698.36 757.37 698.36 757.37C698.36 757.37 717.64 748.14 723.36 748.14C729.08 748.14 742.9 742.44 742.9 742.44L742.44 738.59L740.19 720.18C740.19 720.18 719.05 719.63 718.19 717.73C718.19 717.73 714.39 708.38 713.03 711.84C711.67 715.3 691.31 739.72 686.16 739.72C683.7 739.72 679.63 741.72 676.96 744.51C674 747.56 672.78 751.39 677.19 754.37Z" fill="#67647E"/>
<path id="Vector_62" opacity="0.1" d="M750.21 593.93C750.21 593.93 767.86 605.06 763 607.56C758.14 610.06 750.21 593.93 750.21 593.93Z" fill="black"/>
<path id="Vector_63" opacity="0.1" d="M742.88 615.38C742.88 615.38 758.08 629.81 752.38 630.2C746.68 630.59 742.88 615.38 742.88 615.38Z" fill="black"/>
<path id="Vector_64" opacity="0.1" d="M726.59 661.26C726.59 661.26 734.31 675.77 731.4 678.26C728.49 680.75 726.59 661.26 726.59 661.26Z" fill="black"/>
<path id="Vector_65" opacity="0.1" d="M811.56 675.92C808.85 678.63 837.35 666.92 830.84 666.42C824.33 665.92 811.56 675.92 811.56 675.92Z" fill="black"/>
<path id="Vector_66" d="M868.57 472.32L869.48 472.18C872.86 471.66 885.09 469.74 896.07 467.36C898.75 466.78 901.34 466.17 903.72 465.55C912.13 463.34 917.72 460.96 914.18 459.01C909.42 456.43 906.91 451.73 905.58 447.69C905.46 447.3 905.34 446.91 905.23 446.53C904.642 444.492 904.276 442.397 904.14 440.28C904.14 440.28 873.46 429.42 879.43 440.28C882.36 445.61 880.43 449.96 877.62 453C875.724 455.016 873.491 456.684 871.02 457.93L868.57 472.32Z" fill="#EFB7B9"/>
<path id="Vector_67" opacity="0.1" d="M901.42 463.9C901.42 463.9 890.42 471.77 879.24 465.26C868.06 458.75 853.37 522.81 853.37 522.81L838.17 560.27C838.17 560.27 828.32 568.42 840.57 571.95C852.82 575.48 880.02 568.42 886.92 578.73C893.82 589.04 906.92 590.73 908.23 590.73C909.54 590.73 914.74 551.91 914.74 551.91L916.08 495.71L901.42 463.9Z" fill="black"/>
<path id="Vector_68" d="M841.12 569.77C853.37 573.3 880.56 566.24 887.46 576.56C890.371 580.749 894.425 584.012 899.14 585.96C902.189 587.329 905.442 588.187 908.77 588.5C908.95 588.5 909.21 587.79 909.5 586.56C911.42 578.7 915.28 549.68 915.28 549.68L916.62 493.49L903.72 465.56L902 461.73C900.265 462.88 898.386 463.795 896.41 464.45C893.713 465.45 890.83 465.846 887.964 465.611C885.098 465.376 882.318 464.516 879.82 463.09C876.53 461.17 872.95 465.34 869.52 472.18C861.27 488.65 853.95 520.64 853.95 520.64L838.75 558.1C838.4 558.417 838.067 558.75 837.75 559.1C835.52 561.36 831.47 567 841.12 569.77Z" fill="#F3F5F9"/>
<path id="Vector_69" opacity="0.1" d="M899.5 571.66C898.899 576.402 898.778 581.193 899.14 585.96C899.585 592.735 900.437 599.477 901.69 606.15C901.766 606.569 901.876 606.98 902.02 607.38C908.65 604.48 913.91 602.38 913.91 602.38L909.5 586.56C911.42 578.7 915.28 549.68 915.28 549.68L916.62 493.49L903.72 465.56C912.13 463.35 917.72 460.97 914.18 459.02C908.96 456.19 906.44 450.81 905.23 446.54C903.016 449.617 900.426 452.405 897.52 454.84L897.35 454.98L896.35 464.46L896.05 467.37L895.43 473.37C895.43 473.37 898.43 544.77 900.59 548.84C902.75 552.91 901.67 560.78 899.77 570.01C899.68 570.56 899.59 571.1 899.5 571.66Z" fill="black"/>
<path id="Vector_70" d="M900.88 568.96C898.98 578.19 900.61 593.39 902.78 605.06C904.95 616.73 928.02 609.14 932.37 605.06C936.72 600.98 949.47 599.06 949.47 599.06C949.47 599.06 950.01 545.85 954.09 539.06C956.02 535.84 956.49 525.33 956.44 515.18C956.44 506.07 955.95 497.25 955.78 494.25C955.78 493.56 955.71 493.18 955.71 493.18C955.71 493.18 973.36 463.32 973.09 461.18C972.82 459.04 967.66 458.73 967.66 458.73C967.66 458.73 948.11 443.53 944.86 445.43C941.61 447.33 932.64 442.43 932.64 442.43C932.64 442.43 921.29 443.72 918.94 441.53C918.796 441.408 918.684 441.254 918.611 441.08C918.538 440.906 918.507 440.718 918.52 440.53C918.79 437.06 906.95 429.64 906.59 429.41C916.59 438.41 900.43 452.21 898.59 453.73L898.42 453.87L896.52 472.3C896.52 472.3 899.52 543.69 901.68 547.76C903.84 551.83 902.78 559.73 900.88 568.96Z" fill="#6C63FF"/>
<path id="Vector_71" d="M901.93 492.77C902.681 492.77 903.29 492.161 903.29 491.41C903.29 490.659 902.681 490.05 901.93 490.05C901.179 490.05 900.57 490.659 900.57 491.41C900.57 492.161 901.179 492.77 901.93 492.77Z" fill="#444053"/>
<path id="Vector_72" opacity="0.1" d="M899.15 454.83L907.39 462.83L919.48 442.66C919.337 442.538 919.225 442.384 919.154 442.21C919.083 442.036 919.054 441.847 919.07 441.66C919.33 438.19 907.5 430.76 907.13 430.54C917.11 439.49 901 453.32 899.15 454.83Z" fill="black"/>
<path id="Vector_73" opacity="0.1" d="M904.64 536.2C905.391 536.2 906 535.591 906 534.84C906 534.089 905.391 533.48 904.64 533.48C903.889 533.48 903.28 534.089 903.28 534.84C903.28 535.591 903.889 536.2 904.64 536.2Z" fill="black"/>
<path id="Vector_74" d="M904.64 535.66C905.391 535.66 906 535.051 906 534.3C906 533.549 905.391 532.94 904.64 532.94C903.889 532.94 903.28 533.549 903.28 534.3C903.28 535.051 903.889 535.66 904.64 535.66Z" fill="#444053"/>
<path id="Vector_75" d="M898.6 453.75L906.85 461.75L918.94 441.56C918.796 441.438 918.684 441.284 918.611 441.11C918.538 440.936 918.507 440.748 918.52 440.56C918.79 437.09 906.95 429.67 906.59 429.44C916.56 438.4 900.43 452.23 898.6 453.75Z" fill="#6C63FF"/>
<path id="Vector_76" d="M891.884 530.612L907.37 530.966C908.309 530.987 909.087 530.244 909.108 529.305L909.943 492.795C909.965 491.856 909.221 491.078 908.283 491.056L892.797 490.702C891.858 490.681 891.08 491.424 891.058 492.363L890.223 528.873C890.202 529.812 890.945 530.59 891.884 530.612Z" fill="#464353"/>
<path id="Vector_77" d="M900.54 505.6C902.18 505.6 903.51 504.27 903.51 502.63C903.51 500.99 902.18 499.66 900.54 499.66C898.9 499.66 897.57 500.99 897.57 502.63C897.57 504.27 898.9 505.6 900.54 505.6Z" fill="white"/>
<path id="Vector_78" opacity="0.1" d="M798.26 566.56C805.05 569.56 849.57 561.67 856.09 559.77C862.61 557.87 872.09 543.21 867.49 532.62C862.89 522.03 869.12 511.72 869.12 511.72C869.12 511.72 878.89 490.82 881.06 486.72C883.23 482.62 887.76 470.79 888.39 468.81C888.418 468.586 888.397 468.359 888.33 468.143C888.262 467.927 888.15 467.729 888 467.56C886.24 464.88 879.43 460.12 879.43 460.12C877.51 460.81 877.28 455.33 877.35 451.29C877.35 449.03 877.53 447.23 877.53 447.23C877.53 447.23 876.63 448.15 875.16 449.4C874.62 449.85 874.01 450.35 873.33 450.86C870.772 452.908 867.875 454.492 864.77 455.54C858.26 457.46 849.03 466.36 849.03 466.36L851.74 508.06C851.74 508.06 845.5 547.26 838.98 554.86C832.46 562.46 812.92 562.19 806.41 562.19C799.9 562.19 798.26 566.56 798.26 566.56Z" fill="black"/>
<path id="Vector_79" d="M797.72 564.89C804.51 567.89 849.03 560 855.54 558.1C862.05 556.2 871.54 541.54 866.94 530.95C862.34 520.36 868.57 510.05 868.57 510.05C868.57 510.05 878.35 489.15 880.52 485.05C882.69 480.95 887.22 469.13 887.85 467.14C887.873 466.916 887.85 466.69 887.783 466.475C887.716 466.26 887.606 466.061 887.46 465.89C885.7 463.21 878.89 458.45 878.89 458.45C876.97 459.15 876.73 453.66 876.81 449.62C876.81 447.36 876.99 445.56 876.99 445.56C876.99 445.56 876.09 446.48 874.62 447.73C874.08 448.18 873.46 448.68 872.79 449.19C870.232 451.238 867.335 452.822 864.23 453.87C857.71 455.8 848.48 464.69 848.48 464.69L851.2 506.39C851.2 506.39 844.95 545.59 838.44 553.19C831.93 560.79 812.38 560.56 805.86 560.56C799.34 560.56 797.72 564.89 797.72 564.89Z" fill="#6C63FF"/>
<path id="Vector_80" opacity="0.1" d="M871.56 446.67C871.56 446.67 871.81 448.1 872.24 450.3C873.7 457.75 877.24 474.03 879.7 473.4C881.51 472.95 884.55 469.76 886.92 467C885.15 464.31 878.35 459.56 878.35 459.56C876.43 460.25 876.19 454.76 876.27 450.73L874.07 448.83L871.56 446.67Z" fill="black"/>
<path id="Vector_81" d="M872.1 445.56C872.1 445.56 872.36 446.99 872.79 449.19C874.25 456.65 877.73 472.93 880.25 472.3C882.05 471.85 885.09 468.65 887.46 465.89C885.7 463.21 878.89 458.45 878.89 458.45C876.97 459.15 876.73 453.66 876.81 449.62L874.62 447.73L872.1 445.56Z" fill="#6C63FF"/>
<path id="Vector_82" d="M854.73 525.56C854.73 525.56 868.3 522.85 872.1 516.88C875.9 510.91 901.76 505.75 898.6 511.99C895.44 518.23 872.1 538.66 872.1 538.66L862 553.11L848.49 549.68L842.81 538.62L854.73 525.56Z" fill="#EFB7B9"/>
<path id="Vector_83" opacity="0.1" d="M886.84 541.01C886.84 541.01 873.7 545.9 871.72 552.41C869.74 558.92 886.84 541.01 886.84 541.01Z" fill="black"/>
<path id="Vector_84" opacity="0.1" d="M894.91 548.56C894.91 548.56 896.1 555.34 879.62 554.8L894.91 548.56Z" fill="black"/>
<path id="Vector_85" opacity="0.1" d="M966 461.73L972 461.19C972 461.19 978.52 466.07 983.4 466.07C988.28 466.07 991.28 472.32 991.28 472.32C991.28 472.32 999.42 476.12 1002.14 476.66C1004.86 477.2 1009.47 479.92 1008.14 481C1006.81 482.08 1008.41 484.53 1010.85 486.43C1013.29 488.33 1017.1 498.11 1013.85 499.43C1010.6 500.75 1001.63 503.5 999.19 504.86C996.75 506.22 993.76 504.86 993.76 504.86C993.76 504.86 979.38 486.13 972.05 489.66C964.72 493.19 954.67 493.19 954.67 493.19L946.8 476.63L966 461.73Z" fill="black"/>
<path id="Vector_86" d="M841.12 551.05C841.652 551.973 842.381 552.768 843.256 553.376C844.131 553.985 845.129 554.392 846.18 554.57C851.497 555.195 856.887 554.697 862 553.11C862 553.11 834.65 544.42 861 523.3H853.94L851.59 522.41L852.67 516.78L854.21 466.07L848.51 464.71C848.51 464.71 843.93 498.11 842.83 502.18C841.73 506.25 840.91 521.99 840.91 521.99C840.91 521.99 839.83 528.51 838.2 531.77C836.94 534.22 837.26 545.26 841.12 551.05Z" fill="#6C63FF"/>
<path id="Vector_87" opacity="0.1" d="M842.2 551.05C842.734 551.972 843.464 552.765 844.338 553.373C845.213 553.981 846.21 554.39 847.26 554.57C852.574 555.193 857.96 554.696 863.07 553.11C863.07 553.11 835.72 544.42 862.07 523.3H855L852.65 522.41C848.78 529.25 842.7 541.44 842.2 551.05Z" fill="black"/>
<path id="Vector_88" d="M841.12 551.05C841.652 551.973 842.381 552.768 843.256 553.376C844.131 553.985 845.129 554.392 846.18 554.57C851.497 555.195 856.887 554.697 862 553.11C862 553.11 834.65 544.42 861 523.3H853.94L851.59 522.41C847.7 529.25 841.61 541.44 841.12 551.05Z" fill="#6C63FF"/>
<path id="Vector_89" opacity="0.1" d="M877.62 453C882.264 455.116 887.449 455.741 892.463 454.791C897.477 453.84 902.073 451.359 905.62 447.69C905.5 447.3 905.38 446.91 905.27 446.53C904.682 444.492 904.316 442.397 904.18 440.28C904.18 440.28 873.5 429.42 879.47 440.28C882.36 445.61 880.39 449.96 877.62 453Z" fill="black"/>
<path id="Vector_90" d="M863.14 429.42V429.66C863.14 430.47 863.2 431.26 863.28 432.04C863.36 432.82 863.47 433.53 863.62 434.26C864.684 439.585 867.472 444.411 871.553 447.992C875.634 451.574 880.781 453.711 886.199 454.074C891.617 454.437 897.003 453.006 901.526 450.001C906.048 446.996 909.455 442.585 911.22 437.45C911.38 436.98 911.53 436.45 911.66 436C912.253 433.857 912.552 431.643 912.55 429.42C912.55 428.85 912.55 428.28 912.49 427.72C912.083 421.306 909.192 415.303 904.43 410.986C899.669 406.669 893.412 404.378 886.989 404.6C880.566 404.821 874.482 407.537 870.029 412.171C865.576 416.806 863.105 422.993 863.14 429.42V429.42Z" fill="#EFB7B9"/>
<path id="Vector_91" opacity="0.1" d="M863.14 429.66C863.278 430.445 863.325 431.244 863.28 432.04C863.273 432.471 863.297 432.902 863.35 433.33C863.4 433.65 863.491 433.963 863.62 434.26C864.62 436.61 867.87 438.12 870.02 436.61C870.849 435.93 871.51 435.068 871.95 434.09C874.23 429.85 877.41 424.97 882.4 424.88C884.53 424.88 886.53 425.74 888.59 426.27C890.65 426.8 893.09 426.86 894.59 425.45C895.77 424.38 896.33 422.54 897.91 422.16C899.49 421.78 900.91 423.23 901.68 424.66C902.45 426.09 902.98 427.75 904.45 428.48C905.1 428.81 905.87 428.9 906.51 429.25C909.51 430.87 908.11 436.54 911.18 437.45C911.274 437.484 911.371 437.507 911.47 437.52L911.62 436C911.9 433.25 912.17 430.49 912.45 427.72C912.043 421.306 909.152 415.303 904.39 410.986C899.629 406.669 893.372 404.378 886.949 404.6C880.526 404.821 874.442 407.537 869.989 412.171C865.536 416.806 863.065 422.993 863.1 429.42L863.14 429.66Z" fill="black"/>
<path id="Vector_92" d="M907 392.56C909.9 393.79 912.92 395.68 913.57 398.64C913.728 399.967 913.775 401.305 913.71 402.64C913.85 405.32 915.12 407.8 915.94 410.36C916.76 412.92 917.04 415.92 915.41 418.09C914.9 418.78 914.23 419.34 913.77 420.09C913.17 421.197 912.845 422.431 912.82 423.69L911.48 437.05C908.03 436.41 909.57 430.44 906.48 428.78C905.84 428.43 905.08 428.33 904.42 428.01C902.95 427.28 902.42 425.6 901.65 424.18C900.88 422.76 899.49 421.3 897.88 421.69C896.27 422.08 895.74 423.91 894.56 424.98C893.02 426.38 890.56 426.32 888.56 425.79C886.56 425.26 884.5 424.37 882.37 424.41C877.37 424.49 874.2 429.41 871.92 433.61C871.483 434.592 870.822 435.459 869.99 436.14C867.57 437.85 863.73 435.7 863.32 432.85C863.09 431.26 863.58 429.48 862.66 428.13C861.74 426.78 859.76 426.49 858.2 425.77C854.2 423.95 853 418.99 853.66 414.84C854.14 411.84 855.33 408.76 854.35 405.84C854.02 404.84 853.44 403.94 853.12 402.94C852.25 400.14 853.67 397.06 855.91 395.08C858.15 393.1 861.08 392 863.97 391.03C871.37 388.55 879.15 386.16 887.03 385.64C890.48 385.42 895.03 384.34 897.74 386.49C901 388.99 903 390.85 907 392.56Z" fill="#464353"/>
<path id="Vector_93" opacity="0.1" d="M900.57 471.32C901.321 471.32 901.93 470.711 901.93 469.96C901.93 469.209 901.321 468.6 900.57 468.6C899.819 468.6 899.21 469.209 899.21 469.96C899.21 470.711 899.819 471.32 900.57 471.32Z" fill="black"/>
<path id="Vector_94" d="M900.57 470.78C901.321 470.78 901.93 470.171 901.93 469.42C901.93 468.669 901.321 468.06 900.57 468.06C899.819 468.06 899.21 468.669 899.21 469.42C899.21 470.171 899.819 470.78 900.57 470.78Z" fill="#444053"/>
<path id="Vector_95" opacity="0.1" d="M909.26 556.56C910.011 556.56 910.62 555.951 910.62 555.2C910.62 554.449 910.011 553.84 909.26 553.84C908.509 553.84 907.9 554.449 907.9 555.2C907.9 555.951 908.509 556.56 909.26 556.56Z" fill="black"/>
<path id="Vector_96" d="M909.26 556.02C910.011 556.02 910.62 555.411 910.62 554.66C910.62 553.909 910.011 553.3 909.26 553.3C908.509 553.3 907.9 553.909 907.9 554.66C907.9 555.411 908.509 556.02 909.26 556.02Z" fill="#444053"/>
<path id="Vector_97" opacity="0.1" d="M904.64 579.09C905.391 579.09 906 578.481 906 577.73C906 576.979 905.391 576.37 904.64 576.37C903.889 576.37 903.28 576.979 903.28 577.73C903.28 578.481 903.889 579.09 904.64 579.09Z" fill="black"/>
<path id="Vector_98" d="M904.64 578.55C905.391 578.55 906 577.941 906 577.19C906 576.439 905.391 575.83 904.64 575.83C903.889 575.83 903.28 576.439 903.28 577.19C903.28 577.941 903.889 578.55 904.64 578.55Z" fill="#444053"/>
<path id="Vector_99" opacity="0.1" d="M858 491.4C858 491.4 855 511.68 858 515.21C861 518.74 858 491.4 858 491.4Z" fill="black"/>
<path id="Vector_100" opacity="0.1" d="M946.76 529.05C946.76 529.05 952.46 541.33 946.76 553.11C941.06 564.89 937.53 569.67 939.43 577.19C941.33 584.71 946.76 529.05 946.76 529.05Z" fill="black"/>
<path id="Vector_101" opacity="0.1" d="M677.19 754.37C685.6 760.07 698.36 757.37 698.36 757.37C698.36 757.37 717.64 748.14 723.36 748.14C729.08 748.14 742.9 742.44 742.9 742.44L742.44 738.59C736.81 739.68 724.02 742.26 722.54 743.52C720.64 745.15 697.3 753.03 697.3 753.03C697.3 753.03 681.4 751.03 676.97 744.51C674 747.56 672.78 751.39 677.19 754.37Z" fill="black"/>
<g id="Group" opacity="0.1">
<path id="Vector_102" opacity="0.1" d="M913.74 387.199C913.74 386.804 913.74 386.395 913.74 386C913.74 386.45 913.74 386.913 913.74 387.362C913.735 387.308 913.735 387.253 913.74 387.199V387.199Z" fill="black"/>
<path id="Vector_103" opacity="0.1" d="M858.23 418.699C859.79 419.68 861.75 420.062 862.69 421.915C863.63 423.768 863.12 426.179 863.35 428.346C863.76 432.229 867.6 435.158 870.02 432.828C870.849 431.896 871.509 430.717 871.95 429.381C874.23 423.604 877.41 416.955 882.4 416.846C884.53 416.846 886.53 418.018 888.59 418.727C890.65 419.435 893.09 419.53 894.59 417.623C895.77 416.165 896.33 413.645 897.91 413.14C899.49 412.636 900.91 414.598 901.68 416.533C902.45 418.468 902.98 420.743 904.45 421.751C905.11 422.187 905.87 422.323 906.51 422.8C909.56 425.062 908.02 433.196 911.51 434.068C911.95 428.009 912.397 421.942 912.85 415.865C912.875 414.15 913.2 412.469 913.8 410.96C914.26 409.993 914.93 409.216 915.44 408.236C916.056 407.088 916.438 405.739 916.55 404.325C916.836 406.706 916.439 409.145 915.44 411.138C914.93 412.078 914.26 412.841 913.8 413.863C913.2 415.371 912.875 417.052 912.85 418.767C912.397 424.835 911.95 430.902 911.51 436.97C908.06 436.098 909.6 427.964 906.51 425.702C905.87 425.226 905.11 425.089 904.45 424.653C902.98 423.659 902.45 421.37 901.68 419.435C900.91 417.5 899.52 415.511 897.91 416.042C896.3 416.574 895.77 419.067 894.59 420.525C893.05 422.432 890.59 422.351 888.59 421.629C886.59 420.906 884.53 419.694 882.4 419.748C877.4 419.857 874.23 426.561 871.95 432.283C871.513 433.622 870.852 434.802 870.02 435.73C867.6 438.06 863.76 435.131 863.35 431.248C863.12 429.081 863.61 426.656 862.69 424.817C861.77 422.977 859.79 422.582 858.23 421.601C854.6 419.326 853.23 413.495 853.57 408.181C853.83 412.568 855.27 416.805 858.23 418.699Z" fill="black"/>
<path id="Vector_104" opacity="0.1" d="M853.15 387.608C853.46 388.97 854.05 390.196 854.38 391.559C854.742 393.13 854.848 394.79 854.69 396.423C854.636 395.774 854.532 395.135 854.38 394.515C854.05 393.153 853.46 391.927 853.15 390.564C852.871 389.315 852.817 387.993 852.99 386.708C853 387.008 853.08 387.362 853.15 387.608Z" fill="black"/>
</g>
<path id="Vector_105" opacity="0.1" d="M932.91 521.44C939.15 520.07 953.81 515.75 953.81 515.75L956.44 515.22C956.44 506.11 955.95 497.29 955.78 494.29H955.71C955.71 494.29 943.23 498.37 940.24 500.54C937.25 502.71 928.02 502.17 928.02 502.17C928.02 502.17 913.64 502.98 901.69 516.28C889.74 529.58 926.67 522.81 932.91 521.44Z" fill="black"/>
<path id="Vector_106" d="M993.93 497.21C994.488 497.466 994.972 497.859 995.337 498.352C995.701 498.845 995.935 499.423 996.016 500.031C996.097 500.64 996.022 501.259 995.799 501.83C995.576 502.402 995.212 502.907 994.74 503.3C991.44 506.04 986.61 509.3 982 509.78C974.31 510.55 955.8 514.26 954 514.64L953.71 514.71C952.18 515.16 938.83 519.07 932.95 520.35C926.71 521.72 889.79 528.51 901.73 515.21C912.73 502.97 925.79 501.3 927.8 501.11C927.96 501.1 928.12 501.1 928.28 501.11C929.67 501.18 937.56 501.45 940.28 499.47C941.699 498.58 943.203 497.833 944.77 497.24C950.675 494.798 956.832 493.02 963.13 491.94L975.89 489.72C976.621 489.593 977.373 489.687 978.05 489.99L993.93 497.21Z" fill="#EFB7B9"/>
<path id="Vector_107" d="M967.12 461.73L973.12 461.19C973.12 461.19 979.63 466.07 984.52 466.07C989.41 466.07 992.39 472.32 992.39 472.32C992.39 472.32 1000.54 476.12 1003.25 476.66C1005.96 477.2 1010.58 479.92 1009.25 481C1007.92 482.08 1009.53 484.53 1011.97 486.43C1014.41 488.33 1018.21 498.11 1014.97 499.43C1011.73 500.75 1002.76 503.5 1000.32 504.86C997.88 506.22 994.89 504.86 994.89 504.86C994.89 504.86 980.5 486.13 973.17 489.66C965.84 493.19 955.79 493.19 955.79 493.19L947.92 476.63L967.12 461.73Z" fill="#6C63FF"/>
<path id="Vector_108" d="M954.05 561.34V631.82H841.29V643.56H952.87V694.07H964.62V561.34H954.05Z" fill="#464353"/>
<path id="Vector_109" d="M1005.73 475.56H961.1L956.4 555.44H864.08C856.074 555.366 848.332 558.295 842.38 563.65C837.03 568.53 833.704 575.238 833.06 582.45V702.29H844.81L843.65 586.2C843.623 584.977 843.741 583.755 844 582.56C844.72 579.39 846.75 573.62 852.18 570.38C854.563 569.023 857.268 568.332 860.01 568.38H964.6L970.47 484.98H1005.71L1005.73 475.56Z" fill="#464353"/>
<path id="Vector_110" d="M952.87 588.36C915.25 588.36 884.75 630.95 884.75 683.5C884.75 736.05 915.25 778.64 952.87 778.64C990.49 778.64 1021 736.04 1021 683.5C1021 630.96 990.5 588.36 952.87 588.36ZM956.4 765.56C923.31 765.56 896.49 728.26 896.49 682.26C896.49 636.26 923.31 598.97 956.4 598.97C989.49 598.97 1016.3 636.26 1016.3 682.26C1016.3 728.26 989.48 765.56 956.4 765.56Z" fill="#35323E"/>
<path id="Vector_111" d="M959.92 702.3C965.758 702.3 970.49 695.199 970.49 686.44C970.49 677.681 965.758 670.58 959.92 670.58C954.082 670.58 949.35 677.681 949.35 686.44C949.35 695.199 954.082 702.3 959.92 702.3Z" fill="#35323E"/>
<path id="Vector_112" d="M962.27 691.73C963.568 691.73 964.62 689.626 964.62 687.03C964.62 684.434 963.568 682.33 962.27 682.33C960.972 682.33 959.92 684.434 959.92 687.03C959.92 689.626 960.972 691.73 962.27 691.73Z" fill="#464353"/>
<path id="Vector_113" d="M835.41 663.56V676.48C831.72 674.18 827.67 674.77 824.1 676.34C821.256 677.637 818.732 679.543 816.705 681.922C814.679 684.301 813.199 687.096 812.37 690.11C809.52 699.93 804 719.31 799 737.56C792 763.4 779 757.56 779 757.56L689.14 764.02L651 744.56V732.83H747.32C747.32 732.83 769.63 741.05 779 744.56C788.37 748.07 784.87 741.03 797.28 696.72C809.69 652.41 835.41 663.56 835.41 663.56Z" fill="#464353"/>
<path id="Vector_114" opacity="0.1" d="M779.03 757.5L689.17 763.96L651 744.58L744.97 743.41L779.03 757.5Z" fill="black"/>
<path id="Vector_115" d="M327 525.01C323.832 522.061 321.077 518.697 318.81 515.01C314.05 507.56 306 503.56 300.53 501.5V499.07L300.87 499.01L300.72 496.75H300.87L300.48 490.75L298.53 460.91C298.53 460.91 291.48 441.07 304.01 422.75C316.54 404.43 304.79 386.88 293.01 380.01C293.01 380.01 287.53 351.01 292.23 344.15C285.857 340.461 279.287 337.123 272.55 334.15C272.44 333.8 272.35 333.43 272.26 333.06C272.13 330.35 271.96 327.65 271.81 324.95C271.967 323.547 272.224 322.156 272.58 320.79C272.73 320.23 272.9 319.65 273.08 319.06C278.68 316.92 283.504 313.14 286.921 308.214C290.338 303.288 292.188 297.445 292.23 291.45C292.233 287.952 291.602 284.483 290.37 281.21C290.97 280.194 291.428 279.101 291.73 277.96C292.48 274.87 291.63 271.58 289.87 268.44C286.75 261.62 278.93 255.27 273.25 252.97C265.11 249.66 252.86 250.44 244.38 251.46C239.62 252.03 234.19 253.62 232.47 257.98C231.84 259.58 231.83 261.35 231.39 262.98C229.61 269.64 221.92 272.75 217.17 277.84C212.97 282.34 211.17 288.43 209.77 294.36C205.863 311.358 204.926 328.903 207 346.22C207.48 350.22 208.12 354.17 208.8 358.14C205.94 362.14 203.36 369.2 204.54 381.48L195.14 425.74L191.23 451.69C191.23 451.69 188.88 462.37 198.28 471.53C204.28 477.37 211.53 487.24 216 493.63C214.054 499.288 213.09 505.237 213.15 511.22C213.25 513.94 213.4 516.57 213.59 519.07C213.985 524.381 214.992 529.629 216.59 534.71C217.69 545.37 219.86 559 224.11 567.71L225.67 614.26C225.67 614.26 223.32 657 218.67 665.39C214.02 673.78 228.84 744.76 228.84 744.76V754.68L226.34 762.02L225.71 761.55C213.97 776.05 225.71 781.4 225.71 781.4L234.02 781.74C233.584 783.774 233.84 785.895 234.745 787.768C235.651 789.641 237.155 791.158 239.02 792.08C239.02 792.08 305.55 795.08 317.3 792.08C329.05 789.08 325.91 778.34 319.64 779.08C317.25 779.37 313.72 778.74 310.27 777.85C313.92 773.6 311 767.85 306.34 768.39C300.07 769.15 285.99 763.61 285.99 763.61L285.92 763.7C285.472 763.527 285.01 763.39 284.54 763.29C279.29 762.109 274.104 760.664 269 758.96C266 752.53 259 735.25 264 721.85C266.26 715.79 267 707.73 267 699.92C267.118 676.325 270.59 652.868 277.31 630.25L286.7 598.25C286.7 598.25 300 559.33 300.79 548.64L300.68 533.06C311.68 540.06 320.43 537.97 326.01 534.7C326.835 534.226 327.535 533.562 328.053 532.764C328.571 531.965 328.891 531.055 328.988 530.109C329.084 529.162 328.955 528.206 328.609 527.32C328.263 526.433 327.712 525.641 327 525.01V525.01ZM222.53 444.01C222.8 442.9 223.02 441.67 223.21 440.38C225.05 440.38 226.9 440.38 228.74 440.32C231.029 444.969 231.991 450.159 231.52 455.32C227.32 454.01 221 450.8 222.57 444.06L222.53 444.01Z" fill="url(#paint2_linear)"/>
<path id="Vector_116" d="M230 750.86L227 759.86L236.79 769.65L269.18 777.18L292.53 774.92L291 766.68C290.553 764.899 289.623 763.276 288.315 761.988C287.006 760.701 285.368 759.798 283.58 759.38C273.98 757.12 255.68 751.98 251.83 744.83L230 750.86Z" fill="#DB8B8B"/>
<path id="Vector_117" opacity="0.1" d="M230 750.86L227 759.86L236.79 769.65L269.18 777.18L292.53 774.92L291 766.68C290.553 764.899 289.623 763.276 288.315 761.988C287.006 760.701 285.368 759.798 283.58 759.38C273.98 757.12 255.68 751.98 251.83 744.83L230 750.86Z" fill="black"/>
<path id="Vector_118" d="M285 772.7L280.48 766.7L285 759.7C285 759.7 298.55 765.17 304.58 764.42C310.61 763.67 313.58 774.21 302.32 777.22C291.06 780.23 227 777.22 227 777.22C227 777.22 215.7 771.95 227 757.64L236.79 765.17C236.79 765.17 253.36 774.17 261.65 772.7H285Z" fill="#2E3037"/>
<path id="Vector_119" d="M305.33 785.56L282 787.77L249.61 780.23L239.82 770.44L240.62 768.05L241.74 764.69L242.84 761.4L264.68 755.4C265.789 757.204 267.306 758.721 269.11 759.83C276.2 764.69 288.95 768.19 296.43 769.94C296.74 770.02 297.06 770.11 297.36 770.22C298.792 770.698 300.096 771.499 301.17 772.56C302.475 773.845 303.402 775.464 303.85 777.24L305.33 785.56Z" fill="#DB8B8B"/>
<path id="Vector_120" opacity="0.1" d="M305.33 785.56L282 787.77L249.61 780.23L239.82 770.44L240.62 768.05L249.62 774.96C249.62 774.96 266.2 783.96 274.48 782.49H297.8L293.28 776.49L297.34 770.22C298.772 770.698 300.076 771.499 301.15 772.56C302.455 773.845 303.382 775.464 303.83 777.24L305.33 785.56Z" fill="black"/>
<path id="Vector_121" d="M297.8 783.25L293.28 777.25L297.8 770.25C297.8 770.25 311.36 775.73 317.38 774.97C323.4 774.21 326.38 784.76 315.12 787.78C303.86 790.8 239.8 787.78 239.8 787.78C239.8 787.78 228.5 782.5 239.8 768.19L249.59 775.73C249.59 775.73 266.17 784.73 274.45 783.26L297.8 783.25Z" fill="#2E3037"/>
<path id="Vector_122" d="M279 346.38C279 346.38 242.85 350.15 248.12 335.08C249.597 330.809 249.979 326.236 249.23 321.78C248.294 316.255 246.112 311.016 242.85 306.46L276.74 311.73C274.707 315.127 273.162 318.793 272.15 322.62C268.08 338.56 279 346.38 279 346.38Z" fill="#DB8B8B"/>
<path id="Vector_123" d="M217.21 518.11C217.21 518.11 217.96 550.5 225.49 566.32L227 612.32C227 612.32 224.74 654.5 220.22 662.78C215.7 671.06 230 741.07 230 741.07V753.07C230 753.07 254.1 762.07 260.88 751.56L254.1 661.93L257.1 537.65L217.21 518.11Z" fill="#35323E"/>
<path id="Vector_124" opacity="0.1" d="M217.2 518.11C217.2 518.11 217.95 550.5 225.48 566.32L226.99 612.32C226.99 612.32 224.73 654.5 220.21 662.78C215.69 671.06 230 741.07 230 741.07V753.07C230 753.07 254.1 762.07 260.88 751.56L254.1 661.93L257.1 537.65L217.2 518.11Z" fill="black"/>
<path id="Vector_125" d="M202.14 414.17L197.62 426.22L193.86 451.83C193.35 455.398 193.699 459.036 194.879 462.441C196.058 465.847 198.033 468.922 200.64 471.41C209.64 480.41 221.73 499.28 221.73 499.28L236 456.35C236 456.35 221.69 454.09 223.95 444.3C226.21 434.51 225.45 416.43 225.45 416.43L202.14 414.17Z" fill="#6C63FF"/>
<path id="Vector_126" opacity="0.1" d="M269.09 759.81C259.42 775.02 244.39 766.4 241.72 764.69L242.82 761.4L264.66 755.4C265.771 757.196 267.289 758.707 269.09 759.81Z" fill="black"/>
<path id="Vector_127" d="M296.423 550.61C295.663 561.15 282.863 599.61 282.863 599.61L273.863 631.22C267.386 653.57 264.044 676.711 263.933 699.98C263.933 707.7 263.223 715.65 261.053 721.63C255.053 738.2 267.053 760.8 267.053 760.8C256.513 779.63 238.433 766.8 238.433 766.8V754.73C238.433 754.73 224.113 689.2 227.873 676.4C231.633 663.6 233.113 628.94 233.113 628.94V566.43C221.038 554.402 213.701 538.427 212.443 521.43C212.263 518.96 212.113 516.37 212.023 513.68C211.413 496.68 223.023 476.77 227.563 469.68C228.663 467.97 229.343 467 229.343 467L295.853 493.38L296.003 493.44V496.02V501.71L296.423 550.61Z" fill="#35323E"/>
<path id="Vector_128" opacity="0.1" d="M276.71 311.73C274.677 315.127 273.132 318.793 272.12 322.62C268.437 324.018 264.512 324.665 260.575 324.52C256.638 324.376 252.77 323.444 249.2 321.78C248.264 316.255 246.082 311.016 242.82 306.46L276.71 311.73Z" fill="black"/>
<path id="Vector_129" d="M261.65 323.04C277.876 323.04 291.03 309.886 291.03 293.66C291.03 277.434 277.876 264.28 261.65 264.28C245.424 264.28 232.27 277.434 232.27 293.66C232.27 309.886 245.424 323.04 261.65 323.04Z" fill="#DB8B8B"/>
<path id="Vector_130" opacity="0.1" d="M299.31 498.56H299C267.42 505.05 227.77 472.14 227.77 472.14C228.836 470.348 229.752 468.472 230.51 466.53C231.61 464.82 232.29 463.85 232.29 463.85L298.8 490.23L298.97 492.87L299.31 498.56Z" fill="black"/>
<path id="Vector_131" d="M291 345.63C291 345.63 248.84 320.02 235.28 330.56L216.45 354.67C216.45 354.67 204.4 358.43 206.66 382.53L197.66 426.22L224.78 433C224.78 433 240.6 448.06 227.78 469.91C227.78 469.91 267.7 503.05 299.34 496.27L297.08 460.87C297.08 460.87 290.3 441.29 302.35 423.21C314.4 405.13 303.1 387.81 291.81 381.03C291.78 381.03 286.5 352.41 291 345.63Z" fill="#6C63FF"/>
<path id="Vector_132" d="M293.28 499.28C293.28 499.28 309.1 502.28 316.63 514.35C318.804 517.974 321.458 521.287 324.52 524.2C325.202 524.829 325.729 525.608 326.059 526.476C326.389 527.343 326.514 528.275 326.423 529.199C326.332 530.123 326.027 531.013 325.534 531.799C325.041 532.585 324.372 533.246 323.58 533.73C317.58 537.32 307.86 539.53 295.58 529.41C274.45 512.09 293.28 499.28 293.28 499.28Z" fill="#DB8B8B"/>
<path id="Vector_133" opacity="0.1" d="M269.93 359.94C269.93 359.94 254.87 358.43 251.1 397.56C247.33 436.69 241.31 445.77 241.31 445.77C241.31 445.77 237.54 466.1 246.58 478.15C255.62 490.2 272.94 515.81 272.94 515.81C272.94 515.81 291.78 521.09 295.54 502.26L272.19 458.57C272.19 458.57 268.43 443.51 277.46 432.96C286.49 422.41 293.28 352.41 269.93 359.94Z" fill="black"/>
<path id="Vector_134" d="M271.44 357.68C271.44 357.68 256.37 356.17 252.61 395.34C248.85 434.51 242.82 443.56 242.82 443.56C242.82 443.56 239.05 463.89 248.09 475.94C257.13 487.99 274.45 513.56 274.45 513.56C274.45 513.56 293.28 518.84 297.05 500.01L273.7 456.35C273.7 456.35 269.93 441.29 278.97 430.74C288.01 420.19 294.79 350.15 271.44 357.68Z" fill="#6C63FF"/>
<path id="Vector_135" opacity="0.1" d="M283.87 385.92C283.87 385.92 285.37 409.27 278.59 422.08C271.81 434.89 271.81 451.45 278.59 460.49" fill="black"/>
<path id="Vector_136" opacity="0.1" d="M287.63 357.3C287.63 357.3 281.63 351.3 264.28 350.52C246.93 349.74 239.43 344.52 239.43 344.52" fill="black"/>
<path id="Vector_137" opacity="0.1" d="M245.74 255.69C241.16 256.26 235.93 257.82 234.28 262.13C233.67 263.71 233.66 265.45 233.28 267.13C231.57 273.71 224.17 276.77 219.6 281.8C215.6 286.24 213.79 292.25 212.48 298.1C208.728 314.89 207.832 332.192 209.83 349.28C211.3 361.77 214.3 374.07 215.14 386.61C215.98 399.15 214.45 412.36 207.59 422.9C204.59 427.44 200.75 431.42 198.66 436.41C202.98 439.91 208.94 440.41 214.5 440.6C220.98 440.82 227.46 440.82 233.94 440.6C237.34 440.48 240.89 440.26 243.82 438.54C245.99 437.153 247.775 435.24 249.01 432.98C252.71 426.69 253.65 419.13 253.49 411.83C253.33 404.53 252.18 397.28 252.04 389.98C251.97 385.98 252.28 381.78 254.57 378.53C256.22 376.17 258.73 374.59 260.88 372.69C268.95 365.54 271.71 354.08 271.98 343.31C272.25 332.54 270.48 321.75 271.39 311.02C271.74 306.82 273.31 301.77 277.45 300.95C278.75 300.7 280.14 300.95 281.38 300.45C284.7 299.18 284.38 294.45 285.32 291.08C286.39 287.23 289.67 284.27 290.59 280.38C292.76 271.27 281.16 260.38 273.59 257.22C265.68 253.92 253.89 254.69 245.74 255.69Z" fill="black"/>
<path id="Vector_138" d="M245 254.19C240.42 254.75 235.19 256.32 233.54 260.63C233.113 262.277 232.78 263.946 232.54 265.63C230.83 272.2 223.42 275.27 218.85 280.3C214.85 284.74 213.04 290.74 211.73 296.6C207.961 313.37 207.038 330.654 209 347.73C210.47 360.22 213.47 372.52 214.31 385.07C215.15 397.62 213.62 410.82 206.76 421.36C203.76 425.89 199.92 429.87 197.83 434.86C202.15 438.37 208.11 438.86 213.67 439.06C220.15 439.267 226.63 439.267 233.11 439.06C236.51 438.95 240.06 438.73 242.99 437C245.162 435.618 246.944 433.704 248.17 431.44C251.88 425.15 252.81 417.59 252.66 410.29C252.51 402.99 251.34 395.74 251.21 388.44C251.14 384.44 251.45 380.24 253.73 376.99C255.39 374.64 257.9 373.06 260.05 371.15C268.11 364.01 270.88 352.54 271.15 341.77C271.42 331 269.64 320.22 270.55 309.48C270.91 305.28 272.48 300.23 276.61 299.42C277.92 299.16 279.31 299.42 280.55 298.92C283.87 297.64 283.55 292.92 284.49 289.54C285.55 285.7 288.83 282.73 289.76 278.85C291.93 269.74 280.33 258.85 272.76 255.68C264.92 252.41 253.14 253.18 245 254.19Z" fill="#35323E"/>
</g>
<g id="frame">
<path id="Vector_139" opacity="0.1" d="M735 62H265V608H735V62Z" fill="#6C63FF"/>
</g>
<g id="music">
<path id="Vector_140" d="M495 322.24C500.228 322.219 505.235 320.13 508.928 316.43C512.621 312.729 514.699 307.718 514.71 302.49V259.2C514.71 253.973 512.633 248.959 508.937 245.263C505.241 241.567 500.227 239.49 495 239.49C489.773 239.49 484.759 241.567 481.063 245.263C477.367 248.959 475.29 253.973 475.29 259.2V302.49C475.301 307.718 477.379 312.729 481.072 316.43C484.765 320.13 489.772 322.219 495 322.24ZM529.83 300.56C529.83 320.31 513.07 334.14 495 334.14C476.93 334.14 460.17 320.3 460.17 300.56H449C449 322.95 466.74 341.72 488.43 344.68V368.25H501.57V344.67C523.26 341.38 541 322.94 541 300.56H529.83Z" fill="#6C63FF"/>
</g>
</g>
<defs>
<linearGradient id="paint0_linear" x1="15.5" y1="756.5" x2="948.5" y2="672" gradientUnits="userSpaceOnUse">
<stop stop-color="#0D0496"/>
<stop offset="0.588542" stop-color="#12EAF7" stop-opacity="0.74"/>
<stop offset="1" stop-color="#EE00F3" stop-opacity="0.56"/>
</linearGradient>
<linearGradient id="paint1_linear" x1="845.1" y1="759.26" x2="845.1" y2="383.55" gradientUnits="userSpaceOnUse">
<stop stop-color="#808080" stop-opacity="0.25"/>
<stop offset="0.54" stop-color="#808080" stop-opacity="0.12"/>
<stop offset="1" stop-color="#808080" stop-opacity="0.1"/>
</linearGradient>
<linearGradient id="paint2_linear" x1="319445" y1="454527" x2="319445" y2="159844" gradientUnits="userSpaceOnUse">
<stop stop-color="#808080" stop-opacity="0.25"/>
<stop offset="0.54" stop-color="#808080" stop-opacity="0.12"/>
<stop offset="1" stop-color="#808080" stop-opacity="0.1"/>
</linearGradient>
<clipPath id="clip0">
<rect width="1050" height="813.13" fill="white"/>
</clipPath>
</defs>
</svg>
